inDegrees=yes
name=ik_S51_A09_T02
DataType=double
version=3
OpenSimVersion=4.3-2021-08-27-4bc7ad9
endheader
time	pelvis_tilt	pelvis_list	pelvis_rotation	pelvis_tx	pelvis_ty	pelvis_tz	hip_flexion_r	hip_adduction_r	hip_rotation_r	knee_angle_r	knee_angle_r_beta	ankle_angle_r	subtalar_angle_r	mtp_angle_r	hip_flexion_l	hip_adduction_l	hip_rotation_l	knee_angle_l	knee_angle_l_beta	ankle_angle_l	subtalar_angle_l	mtp_angle_l	lumbar_extension	lumbar_bending	lumbar_rotation	arm_flex_r	arm_add_r	arm_rot_r	elbow_flex_r	pro_sup_r	wrist_flex_r	wrist_dev_r	arm_flex_l	arm_add_l	arm_rot_l	elbow_flex_l	pro_sup_l	wrist_flex_l	wrist_dev_l
18.1199999999997	-4.854983897100522	-0.9483923743093728	30.54954311895967	0	0.9399999999999999	0	38.59812514548745	-10.29525817744594	-9.880211243086332	52.97775065955972	0.9246361793099147	0	0	0	38.59812514548745	-10.29525817744594	-9.880211243086332	52.97775065955972	0.9246361793099147	0	0	0	-3.697031156093071	-0.5278080630665335	-1.7298525737658	28.93948998085738	-55.76148857572228	2.300431764695184	159.3426219875174	18.11626751250502	0	0	55.22529877043801	-8.122327414052815	-12.99317189659205	55.48079958642563	115.035432812325	0	0
18.1399999999997	-4.869979912724362	-0.9325122830623318	30.61324957076215	0	0.9399999999999999	0	38.60237068943418	-10.29457997959643	-9.880387820083159	52.97864370592612	0.9246517659093813	0	0	0	38.60237068943418	-10.29457997959643	-9.880387820083159	52.97864370592612	0.9246517659093813	0	0	0	-3.703892764388667	-0.4974284561967264	-1.836362019456162	28.90690511717518	-55.93920135080052	1.977994633216774	159.7141408795231	17.87363497807763	0	0	55.19727080029903	-8.584915692211588	-13.4625425772245	56.28696043654202	114.0481112485104	0	0
18.1599999999997	-4.878253956912296	-0.9254754219540676	30.72105967495268	0	0.9399999999999999	0	38.60741106920451	-10.29377443252998	-9.880597582133063	52.97970189755723	0.9246702348374611	0	0	0	38.60741106920451	-10.29377443252998	-9.880597582133063	52.97970189755723	0.9246702348374611	0	0	0	-3.709110505416382	-0.4785556966720173	-1.930959555581635	28.78986490107397	-56.1201976247273	1.480290998680504	160.128361131134	17.50867435852104	0	0	55.2043110611266	-9.090624095492103	-14.00831690205982	56.94371234736517	113.0292185424877	0	0
18.1799999999997	-4.901846939016019	-0.9051819606761179	30.70623635095749	0	0.9399999999999999	0	38.61156636100407	-10.29311557894863	-9.880769653285753	52.98057989900576	0.9246855588535754	0	0	0	38.61156636100407	-10.29311557894863	-9.880769653285753	52.98057989900576	0.9246855588535754	0	0	0	-3.719054045658189	-0.4503734141281548	-1.904675887929021	28.71724239406566	-56.3017095122436	1.019790282443758	160.5121721352357	17.08806429629801	0	0	55.21648095051113	-9.239290472932108	-14.16024997027022	57.51093905590194	111.9057707721266	0	0
18.1999999999997	-4.916448382884529	-0.8731765746502309	30.83758732354491	0	0.9399999999999999	0	38.61536940273304	-10.29250999842496	-9.880927625523347	52.98137902398771	0.9246995062156452	0	0	0	38.61536940273304	-10.29250999842496	-9.880927625523347	52.98137902398771	0.9246995062156452	0	0	0	-3.716392432030651	-0.4078381385291137	-1.993387799952181	28.58215191280893	-56.48879566157703	0.6223048229466577	160.854855790323	16.78597875565988	0	0	55.25492594115779	-9.706920701999769	-14.8120466002018	57.9106960215813	110.8806879426583	0	0
18.2199999999997	-4.951191903377994	-0.8230706314892876	30.9979430612259	0	0.9399999999999999	0	38.61951873130183	-10.29184909921043	-9.881100053730567	52.98224964307644	0.9247147013852742	0	0	0	38.61951873130183	-10.29184909921043	-9.881100053730567	52.98224964307644	0.9247147013852742	0	0	0	-3.721404793819654	-0.3433547368272165	-2.029202837966765	28.40803461256242	-56.72023819213913	0.277382108830153	161.1644726841701	16.56997519637071	0	0	55.29543638088145	-10.07030904086003	-15.46012439601712	58.16035042007759	110.2744302815422	0	0
18.2399999999997	-4.963797507921954	-0.7885439085882368	31.12233562325824	0	0.9399999999999999	0	38.62352547364738	-10.29121212507254	-9.881266394862751	52.98309071450377	0.9247293808509258	0	0	0	38.62352547364738	-10.29121212507254	-9.881266394862751	52.98309071450377	0.9247293808509258	0	0	0	-3.715489419149924	-0.301776780247294	-2.092247119018448	28.23813650644975	-56.94280302163236	0.01694921286980272	161.3617571743487	16.45639721040056	0	0	55.34708627366707	-10.48425676395463	-16.08665374877974	58.1099366521032	110.6493010640781	0	0
18.2599999999997	-4.967480874190267	-0.7721287067125491	31.24784229674832	0	0.9399999999999999	0	38.62864909017091	-10.29039849805809	-9.8814790080501	52.98416587369221	0.9247481459187471	0	0	0	38.62864909017091	-10.29039849805809	-9.8814790080501	52.98416587369221	0.9247481459187471	0	0	0	-3.711680516999379	-0.2785652130432473	-2.177416640115715	28.16590968331124	-57.06644345718037	-0.2040093587652795	161.6142207557893	16.5091877146337	0	0	55.43426425560947	-10.95706846997481	-16.64643797826299	57.86898544528744	111.7200264582315	0	0
18.2799999999997	-4.973534502020938	-0.7397438724860799	31.47460159182568	0	0.9399999999999999	0	38.63403143321883	-10.28954511588283	-9.881702206039147	52.98529507146625	0.9247678541378103	0	0	0	38.63403143321883	-10.28954511588283	-9.881702206039147	52.98529507146625	0.9247678541378103	0	0	0	-3.702256668161801	-0.2350901097148261	-2.349595560326854	28.06808170579819	-57.10253915483926	-0.3372604874884134	161.830935512854	17.59490873191653	0	0	55.77606650564647	-12.04123295371171	-17.82623347335428	57.24505285112086	113.1282736610176	0	0
18.2999999999997	-4.985217695955437	-0.6934477486708326	31.58137506446744	0	0.9399999999999999	0	38.63596026679203	-10.28924105526085	-9.881781905940217	52.98570156330149	0.9247749487587177	0	0	0	38.63596026679203	-10.28924105526085	-9.881781905940217	52.98570156330149	0.9247749487587177	0	0	0	-3.688816348164496	-0.1843183110186348	-2.418457630168809	28.0491873498499	-57.25282724132346	-0.5253824465931561	161.9827932189934	17.65798199889622	0	0	55.99162971290892	-12.56244446398129	-18.3625099902734	57.06152420604805	112.9507878647748	0	0
18.3199999999997	-4.999416760468789	-0.6558194073834379	31.74047686374734	0	0.9399999999999999	0	38.64077168555426	-10.28848109247865	-9.881981019081788	52.98671243044699	0.9247925917187068	0	0	0	38.64077168555426	-10.28848109247865	-9.881981019081788	52.98671243044699	0.9247925917187068	0	0	0	-3.682946542405378	-0.1343510974341278	-2.550757722393949	28.02847135371461	-57.38466765988424	-0.7639723862206338	162.2383074330642	17.85596641467755	0	0	56.19734741752718	-13.1575282299427	-19.05616204596847	56.38964937844413	114.8439620232542	0	0
18.3399999999997	-5.005190049584682	-0.6060729151970986	32.10324668136617	0	0.9399999999999999	0	38.6453870532266	-10.28775546065845	-9.882171500409084	52.98768486756271	0.9248095639481448	0	0	0	38.6453870532266	-10.28775546065845	-9.882171500409084	52.98768486756271	0.9248095639481448	0	0	0	-3.665349034388073	-0.0645676563270067	-2.882017134825889	27.99708304396383	-57.55349459831141	-0.974953869995751	162.473921318579	18.04209589458002	0	0	56.38946518320648	-13.82625318409399	-19.92643499169902	54.65571952450427	120.4215794006045	0	0
18.3599999999997	-5.01378772122907	-0.5946625897064222	32.27548956059674	0	0.9399999999999999	0	38.65054677652275	-10.28694439428631	-9.882384486057726	52.98877056298293	0.9248285129079014	0	0	0	38.65054677652275	-10.28694439428631	-9.882384486057726	52.98877056298293	0.9248285129079014	0	0	0	-3.66897582783872	-0.03669855452578942	-3.055017163357515	28.0265409294744	-57.62768855669788	-1.199668517420155	162.6833135351445	18.1623217445734	0	0	56.645026186412	-14.48606157827496	-20.31266627935126	53.53274535701619	123.1227614470368	0	0
18.3799999999997	-5.024844445468402	-0.5439997974841811	32.44679904686036	0	0.9399999999999999	0	38.65490894971909	-10.2862641282818	-9.882563664007087	52.98969412482798	0.9248446321029433	0	0	0	38.65490894971909	-10.2862641282818	-9.882563664007087	52.98969412482798	0.9248446321029433	0	0	0	-3.65308051268685	0.02531898307097006	-3.220304512865068	28.08271957429433	-57.74243914313652	-1.305140918620147	162.8151901704717	18.35133442970241	0	0	56.59200756278022	-14.54687992484631	-20.75280040459372	52.53938490144875	126.0465595992894	0	0
18.3999999999997	-5.039239495511453	-0.5112378825278924	32.61967295948232	0	0.9399999999999999	0	38.65871529251275	-10.28566830641848	-9.882720438169098	52.99049606637359	0.9248586286233229	0	0	0	38.65871529251275	-10.28566830641848	-9.882720438169098	52.99049606637359	0.9248586286233229	0	0	0	-3.649282665028153	0.07245463239189401	-3.383569076808495	28.17917319093743	-57.79066256512692	-1.336199628107603	162.8945601522408	18.57424153719607	0	0	56.76988142742252	-15.19144162278537	-21.19720835484242	51.45997536379951	128.6795899794775	0	0
18.4199999999997	-5.051477013475134	-0.4754001673515897	32.81575218479099	0	0.9399999999999999	0	38.66322847672051	-10.28496181592256	-9.88290637807822	52.99144565863404	0.9248752021348191	0	0	0	38.66322847672051	-10.28496181592256	-9.88290637807822	52.99144565863404	0.9248752021348191	0	0	0	-3.641470089317141	0.1237496408426399	-3.575582301256454	28.34202761903354	-57.85941885147716	-1.265456841741552	162.8894690752156	18.61475351028723	0	0	57.24372804687525	-16.18645586167328	-21.78305565436921	50.13428056876061	131.2231365261235	0	0
18.4399999999997	-5.077033065627595	-0.4401577272458875	32.99374003535425	0	0.9399999999999999	0	38.66750267995626	-10.28429745650207	-9.883081707853199	52.99234973580131	0.92489098125808	0	0	0	38.66750267995626	-10.28429745650207	-9.883081707853199	52.99234973580131	0.92489098125808	0	0	0	-3.643909597792812	0.1804376275439846	-3.752092342799911	28.51901835790184	-57.93093733847211	-1.157738115870851	162.8876708047798	18.79804397039379	0	0	57.21529459220604	-16.3301332421086	-22.20839531287342	49.33524136044138	134.197989574975	0	0
18.4599999999997	-5.124891825686635	-0.3902737256413068	33.12561879175983	0	0.9399999999999999	0	38.67199797443068	-10.2835967526124	-9.883266496209508	52.99329681463274	0.9249075109019643	0	0	0	38.67199797443068	-10.2835967526124	-9.883266496209508	52.99329681463274	0.9249075109019643	0	0	0	-3.657267437706313	0.2588499945546475	-3.899242119356373	28.77327521874457	-58.00000028885222	-0.9876302310926747	162.8493630683347	18.9640172902878	0	0	57.50555486719948	-16.75873981877763	-22.73896676080854	48.19436272271929	136.517494717949	0	0
18.47999999999969	-5.141311357605193	-0.3823621252962923	33.2391729805485	0	0.9399999999999999	0	38.67575154255547	-10.28301292279177	-9.883420617390914	52.99408820986537	0.9249213233544585	0	0	0	38.67575154255547	-10.28301292279177	-9.883420617390914	52.99408820986537	0.9249213233544585	0	0	0	-3.667586696277498	0.2832368048376864	-4.020796815441291	28.91365378162491	-57.98838998063549	-0.9123397487823884	162.8114716919598	19.07530069579466	0	0	57.80255814761431	-17.19016232852198	-23.14375325938943	46.87559670081099	138.0934633533332	0	0
18.49999999999969	-5.148685264951419	-0.3799353915803954	33.34048621298918	0	0.9399999999999999	0	38.67881305901227	-10.28253771913904	-9.883546177953482	52.99473431624626	0.9249326000381231	0	0	0	38.67881305901227	-10.28253771913904	-9.883546177953482	52.99473431624626	0.9249326000381231	0	0	0	-3.673392534008483	0.2975685930373884	-4.138865419003555	28.98953270525486	-57.95437117691117	-0.9424830135375459	162.8126021827873	19.11858503647838	0	0	58.11940203649735	-17.62961657902922	-23.63500051233927	45.48497092931962	139.0711534218735	0	0
18.51999999999969	-5.173931291815453	-0.3746477209832689	33.3973030606755	0	0.9399999999999999	0	38.68147017023234	-10.28212574500671	-9.883655092068865	52.99529519224082	0.9249423891709236	0	0	0	38.68147017023234	-10.28212574500671	-9.883655092068865	52.99529519224082	0.9249423891709236	0	0	0	-3.692141553005899	0.3207610999807952	-4.197815506126743	29.10267810154399	-58.00158971730558	-1.004864948284052	162.8644676611241	18.97311416138883	0	0	58.46281846968763	-17.89616723080783	-24.01583845725541	45.05517672143592	139.3042826096683	0	0
18.53999999999969	-5.172774200038487	-0.3699325140544076	33.53616545545525	0	0.9399999999999999	0	38.68444550833387	-10.28166520157931	-9.883776940351156	52.9959236287248	0.9249533574567087	0	0	0	38.68444550833387	-10.28166520157931	-9.883776940351156	52.9959236287248	0.9249533574567087	0	0	0	-3.690601798943255	0.3371893654609787	-4.387879846898708	29.12755751057545	-57.97758530801218	-1.110627112286425	162.9832059180788	18.862237016729	0	0	59.12612649529389	-18.51127136783602	-24.91115651871793	43.2105773683059	140.9483276011166	0	0
